<?xml version="1.0" encoding="UTF-8" standalone="no"?>
<!DOCTYPE svg PUBLIC "-//W3C//DTD SVG 1.1//EN" "http://www.w3.org/Graphics/SVG/1.1/DTD/svg11.dtd">
<svg width="100%" height="100%" viewBox="0 0 344 385" version="1.1" xmlns="http://www.w3.org/2000/svg" xmlns:xlink="http://www.w3.org/1999/xlink" xml:space="preserve" xmlns:serif="http://www.serif.com/" style="fill-rule:evenodd;clip-rule:evenodd;stroke-linejoin:round;stroke-miterlimit:2;">
    <g id="path2" transform="matrix(1,0,0,1,-20.4763,-64)">
        <path d="M343.759,106.662L343.759,79.43L363.524,64L149.634,64L20.476,176.274L106.132,176.274C105.977,178.399 105.913,180.32 105.913,182.499C105.913,203.344 113.132,220.586 127.585,234.36C142.038,248.157 159.837,255.008 180.912,255.008C185.835,255.008 190.662,254.64 195.35,253.984C192.443,260.485 190.976,266.507 190.976,272.126C190.976,282.001 195.475,292.556 204.443,303.768C165.209,306.438 136.382,313.5 118.006,324.931C107.475,331.43 99.006,339.635 92.615,349.462C86.225,359.361 83.038,369.977 83.038,381.424C83.038,391.072 85.1,399.76 89.257,407.486C93.413,415.212 98.835,421.557 105.569,426.47C112.287,431.438 120.038,435.571 128.788,438.939C137.522,442.283 146.194,444.657 154.849,446.001C163.476,447.344 172.054,448 180.555,448C194.024,448 207.508,446.266 221.102,442.813C234.664,439.328 247.382,434.171 259.273,427.32C271.132,420.515 280.788,411.234 288.195,399.602C295.585,387.922 299.289,374.797 299.289,360.266C299.289,349.25 297.04,339.227 292.539,330.125C288.071,321.053 282.601,313.584 276.087,307.781C269.586,301.968 263.087,296.626 256.571,291.813C250.071,286.968 244.571,282.063 240.103,277C235.618,271.954 233.368,266.946 233.368,262.016C233.368,257.095 235.102,252.344 238.584,247.751C242.039,243.141 246.258,238.703 251.194,234.445C256.131,230.196 261.069,225.477 265.99,220.312C270.912,215.165 275.131,208.485 278.6,200.304C282.085,192.125 283.803,182.859 283.803,172.547C283.803,159.094 281.256,148.086 276.256,139.233C275.662,138.211 275.038,137.43 274.381,136.211L331.288,89.539L331.288,106.658C323.895,107.587 324.664,112.003 324.664,117.293L324.664,245.96C324.664,251.918 329.539,256.794 335.498,256.794L339.487,256.794C345.445,256.794 350.32,251.919 350.32,245.96L350.32,117.293C350.32,112.016 351.098,107.605 343.759,106.662L343.759,106.662ZM236.399,329.141C237.54,329.891 240.103,331.922 244.117,335.18C248.167,338.423 250.914,340.875 252.383,342.594C253.821,344.258 255.962,346.759 258.759,350.141C261.572,353.516 263.477,356.445 264.477,358.875C265.478,361.352 266.493,364.336 267.524,367.821C268.509,371.266 269.009,374.797 269.009,378.383C269.009,395.431 262.445,408.063 249.353,416.242C236.228,424.423 220.586,428.516 202.415,428.516C193.228,428.516 184.212,427.423 175.352,425.32C166.509,423.204 158.041,419.984 149.962,415.719C141.884,411.461 135.385,405.515 130.461,397.922C125.524,390.282 123.055,381.507 123.055,371.672C123.055,361.352 125.852,352.382 131.477,344.766C137.071,337.141 144.415,331.375 153.509,327.451C162.572,323.505 171.759,320.709 181.071,319.053C190.383,317.35 199.868,316.498 209.509,316.498C213.978,316.498 217.445,316.749 219.914,317.194C220.369,317.413 222.946,319.264 227.649,322.757C232.353,326.22 235.274,328.352 236.399,329.141L236.399,329.141ZM233.04,228.563C225.634,237.423 215.306,241.851 202.087,241.851C190.227,241.851 179.789,237.087 170.821,227.539C161.821,218.016 155.399,207.211 151.477,195.109C147.54,183 145.571,171.125 145.571,159.461C145.571,145.767 149.167,134.109 156.352,124.485C163.539,114.835 173.851,110 187.29,110C199.165,110 209.664,115.038 218.727,125.157C227.821,135.242 234.337,146.57 238.244,159.125C242.166,171.664 244.117,183.655 244.117,195.109C244.117,208.555 240.415,219.719 233.041,228.563L233.04,228.563Z" style="fill:rgb(66,133,244);fill-rule:nonzero;"/>
    </g>
</svg>
